<svg xmlns="http://www.w3.org/2000/svg" version="1.1" xmlns:xlink="http://www.w3.org/1999/xlink" xmlns:svgjs="http://svgjs.dev/svgjs" width="1440" height="560" preserveAspectRatio="none" viewBox="0 0 1440 560"><g mask="url(&quot;#SvgjsMask1000&quot;)" fill="none"><rect width="1440" height="560" x="0" y="0" fill="#0e2a47"></rect><rect width="216" height="216" clip-path="url(&quot;#SvgjsClipPath1001&quot;)" x="305.06" y="395.17" fill="url(&quot;#SvgjsPattern1002&quot;)" transform="rotate(182.1, 413.06, 503.17)"></rect><path d="M297.71999999999997 433.14 L292 396.89L273.6041459214092 436.2708540785908z" stroke="#d3b714" stroke-width="1.1" stroke-dasharray="4, 4"></path><path d="M627.63 319.22L628.29 332.01 615.96 335.47 616.63 348.26 604.3 351.72 604.97 364.51 592.64 367.97M621.13 314.56L621.8 327.35 609.47 330.8 610.13 343.59 597.8 347.05 598.47 359.84 586.14 363.3M614.63 309.89L615.3 322.68 602.97 326.14 603.63 338.93 591.3 342.39 591.97 355.18 579.64 358.64" stroke="#037b0b" stroke-width="1" stroke-dasharray="3, 3"></path><path d="M74.02 104.96a5.6 5.6 0 1 0 5.12-9.97 5.6 5.6 0 1 0-5.12 9.97zM81.33 90.72a5.6 5.6 0 1 0 5.11-9.96 5.6 5.6 0 1 0-5.11 9.96zM88.63 76.49a5.6 5.6 0 1 0 5.11-9.97 5.6 5.6 0 1 0-5.11 9.97zM95.94 62.25a5.6 5.6 0 1 0 5.11-9.97 5.6 5.6 0 1 0-5.11 9.97zM73.65 140.73a5.6 5.6 0 1 0 5.12-9.96 5.6 5.6 0 1 0-5.12 9.96zM80.96 126.5a5.6 5.6 0 1 0 5.11-9.97 5.6 5.6 0 1 0-5.11 9.97zM88.26 112.26a5.6 5.6 0 1 0 5.11-9.96 5.6 5.6 0 1 0-5.11 9.96zM95.56 98.02a5.6 5.6 0 1 0 5.12-9.96 5.6 5.6 0 1 0-5.12 9.96zM73.28 176.51a5.6 5.6 0 1 0 5.11-9.97 5.6 5.6 0 1 0-5.11 9.97zM80.59 162.27a5.6 5.6 0 1 0 5.11-9.96 5.6 5.6 0 1 0-5.11 9.96zM87.89 148.04a5.6 5.6 0 1 0 5.11-9.97 5.6 5.6 0 1 0-5.11 9.97zM95.19 133.8a5.6 5.6 0 1 0 5.12-9.97 5.6 5.6 0 1 0-5.12 9.97z" stroke="#d3b714" stroke-width="2.55" stroke-dasharray="4, 4"></path><rect width="325.92" height="325.92" clip-path="url(&quot;#SvgjsClipPath1003&quot;)" x="-63.88" y="-155.09" fill="url(&quot;#SvgjsPattern1004&quot;)" transform="rotate(222.5, 99.08, 7.87)"></rect><circle r="46.666666666666664" cx="911.31" cy="166.81" fill="#037b0b"></circle><circle r="58.564023742716785" cx="999.21" cy="390.69" stroke="#037b0b" stroke-width="1" stroke-dasharray="3, 2"></circle><rect width="264.96" height="264.96" clip-path="url(&quot;#SvgjsClipPath1005&quot;)" x="1163.78" y="-14.74" fill="url(&quot;#SvgjsPattern1006&quot;)" transform="rotate(340.6, 1296.26, 117.74)"></rect><path d="M478.81 211.1 L534.0400000000001 149.28L558.228781815938 231.99378181593792z" fill="#037b0b"></path><circle r="59.70342547649203" cx="908.71" cy="378.11" fill="#d3b714"></circle><rect width="75.19999999999999" height="75.19999999999999" clip-path="url(&quot;#SvgjsClipPath1007&quot;)" x="1031.56" y="401.32" fill="url(&quot;#SvgjsPattern1008&quot;)" transform="rotate(7.84, 1069.16, 438.92)"></rect><path d="M632.75 310.41a5.6 5.6 0 1 0-6.11 9.38 5.6 5.6 0 1 0 6.11-9.38zM624.02 323.81a5.6 5.6 0 1 0-6.12 9.38 5.6 5.6 0 1 0 6.12-9.38zM615.28 337.22a5.6 5.6 0 1 0-6.11 9.38 5.6 5.6 0 1 0 6.11-9.38zM606.55 350.62a5.6 5.6 0 1 0-6.12 9.38 5.6 5.6 0 1 0 6.12-9.38zM636.82 274.86a5.6 5.6 0 1 0-6.12 9.38 5.6 5.6 0 1 0 6.12-9.38zM628.08 288.27a5.6 5.6 0 1 0-6.11 9.38 5.6 5.6 0 1 0 6.11-9.38zM619.35 301.67a5.6 5.6 0 1 0-6.12 9.38 5.6 5.6 0 1 0 6.12-9.38zM610.61 315.08a5.6 5.6 0 1 0-6.11 9.38 5.6 5.6 0 1 0 6.11-9.38z" stroke="#037b0b" stroke-width="2.79" stroke-dasharray="4, 4"></path></g><defs><mask id="SvgjsMask1000"><rect width="1440" height="560" fill="#ffffff"></rect></mask><pattern x="0" y="0" width="6" height="6" patternUnits="userSpaceOnUse" id="SvgjsPattern1002"><path d="M0 6L3 0L6 6" stroke="#d3b714" fill="none"></path></pattern><clipPath id="SvgjsClipPath1001"><circle r="54" cx="413.06" cy="503.17"></circle></clipPath><pattern x="0" y="0" width="7.76" height="7.76" patternUnits="userSpaceOnUse" id="SvgjsPattern1004"><path d="M0 7.76L3.88 0L7.76 7.76" stroke="#e73635" fill="none"></path></pattern><clipPath id="SvgjsClipPath1003"><circle r="81.48" cx="99.08" cy="7.87"></circle></clipPath><pattern x="0" y="0" width="11.04" height="11.04" patternUnits="userSpaceOnUse" id="SvgjsPattern1006"><path d="M5.52 1L5.52 10.04M1 5.52L10.04 5.52" stroke="#d3b714" fill="none" stroke-width="1"></path></pattern><clipPath id="SvgjsClipPath1005"><circle r="66.24" cx="1296.26" cy="117.74"></circle></clipPath><pattern x="0" y="0" width="7.52" height="7.52" patternUnits="userSpaceOnUse" id="SvgjsPattern1008"><path d="M0 7.52L3.76 0L7.52 7.52" stroke="#037b0b" fill="none"></path></pattern><clipPath id="SvgjsClipPath1007"><circle r="18.799999999999997" cx="1069.16" cy="438.92"></circle></clipPath></defs></svg>